<svg xmlns="http://www.w3.org/2000/svg" viewBox="0 0 1450.8 1706.2"><defs><style>.cls-1{fill:#f0b90b;}</style></defs><g id="Layer_2" data-name="Layer 2"><g id="Layer_1-2" data-name="Layer 1"><path class="cls-1" d="M163.3,853.1l.9,330,280.4,165v193.2L.1,1280.6v-524l163.2,96.5Zm0-330V715.4L0,618.8V426.5l163.3-96.6,164.1,96.6L163.3,523.1Zm398.4-96.6L725,329.9l164.1,96.6L725,523.1,561.7,426.5Z"/><path class="cls-1" d="M281.3,1114.7V921.5l163.3,96.6v192.3l-163.3-95.7Zm280.4,302.6L725,1513.9l164.1-96.6v192.3L725,1706.2l-163.3-96.6V1417.3Zm561.6-990.8,163.3-96.6,164.1,96.6V618.8l-164.1,96.6V523.1l-163.3-96.6Zm163.3,756.6.9-330,163.3-96.6v524l-444.5,260.7V1348l280.3-164.9Z"/><polygon class="cls-1" points="1169.5 1114.7 1006.2 1210.4 1006.2 1018.1 1169.5 921.5 1169.5 1114.7"/><path class="cls-1" d="M1169.5,591.5l.9,193.2-281.2,165v330.8l-163.3,95.7-163.3-95.7V949.7l-281.2-165V591.5l164-96.6L724.9,660.7l281.2-165.8,164.1,96.6ZM281.3,261.6,725,0l444.5,261.6-163.3,96.6L725,192.4,444.6,358.2,281.3,261.6Z"/></g></g></svg>