<?xml version="1.0" encoding="UTF-8"?>
<svg fill="white" width="700pt" height="700pt" version="1.1" viewBox="0 0 700 700" xmlns="http://www.w3.org/2000/svg">
 <g>
  <path d="m563.5 409.5c-15.75-50.75-54.25-92.75-105-112-5.25-1.75-12.25-1.75-17.5 3.5-7 7-7 17.5 0 22.75 1.75 1.75 3.5 3.5 5.25 3.5 31.5 12.25 57.75 35 75.25 64.75h-341.25c17.5-29.75 45.5-52.5 77-64.75 8.75-3.5 12.25-12.25 10.5-21 0-1.75-1.75-5.25-3.5-7-5.25-5.25-12.25-5.25-17.5-3.5-50.75 19.25-91 61.25-106.75 112-1.75 5.25-3.5 10.5-3.5 15.75v66.5c0 17.5 14 33.25 31.5 33.25h367.5c19.25 0 33.25-15.75 33.25-33.25v-66.5c-1.75-3.5-3.5-10.5-5.25-14z"/>
  <path d="m318.5 309.75 12.25 12.25c10.5 10.5 28 10.5 38.5 0l148.75-148.75c10.5-10.5 10.5-28 0-38.5l-78.75-78.75c-10.5-10.5-28-10.5-38.5 0l-150.5 150.5c-10.5 10.5-10.5 28 0 38.5l36.75 36.75zm-19.25-105 103.25-103.25c10.5-10.5 28-10.5 38.5 0l31.5 31.5c10.5 10.5 10.5 28 0 38.5l-101.5 103.25c-10.5 10.5-28 10.5-38.5 0l-31.5-31.5c-12.25-10.5-12.25-28-1.75-38.5z"/>
 </g>
</svg>
