<?xml version="1.0" encoding="UTF-8"?>
<svg fill="white" width="700pt" height="700pt" version="1.1" viewBox="0 0 700 700" xmlns="http://www.w3.org/2000/svg" xmlns:xlink="http://www.w3.org/1999/xlink">

 <g>
  <path d="m369.04 377.44h-45.359v-123.76c0-16.801-13.441-30.238-30.238-30.238-16.801 0-30.238 13.441-30.238 30.238v123.76h-45.359c-17.922 0-29.121 19.602-19.602 35.281l75.039 122.64c8.9609 14.559 30.238 14.559 39.199 0l75.039-122.64c10.641-15.684-0.55859-35.281-18.48-35.281z"/>
  <path d="m501.2 147.84-75.598-122.64c-8.9609-14.559-30.238-14.559-39.199 0l-75.043 122.64c-9.5195 15.121 1.6797 35.281 19.602 35.281h45.359v123.76c0 16.801 13.441 30.238 30.238 30.238 16.801 0 30.238-13.441 30.238-30.238l0.003906-124.32h45.359c17.359 0 28-19.598 19.039-34.719z"/>
  <use x="70" y="644" xlink:href="#x"/>
  <use x="90.550781" y="644" xlink:href="#c"/>
  <use x="104.359375" y="644" xlink:href="#a"/>
  <use x="123.347656" y="644" xlink:href="#l"/>
  <use x="142.242188" y="644" xlink:href="#b"/>
  <use x="155.628906" y="644" xlink:href="#a"/>
  <use x="174.617188" y="644" xlink:href="#k"/>
  <use x="204.410156" y="644" xlink:href="#j"/>
  <use x="224.453125" y="644" xlink:href="#i"/>
  <use x="252.453125" y="644" xlink:href="#h"/>
  <use x="274.121094" y="644" xlink:href="#w"/>
  <use x="283.71875" y="644" xlink:href="#g"/>
  <use x="293.316406" y="644" xlink:href="#f"/>
  <use x="309.914062" y="644" xlink:href="#a"/>
  <use x="338.652344" y="644" xlink:href="#v"/>
  <use x="361.894531" y="644" xlink:href="#a"/>
  <use x="380.882812" y="644" xlink:href="#u"/>
  <use x="397.550781" y="644" xlink:href="#g"/>
  <use x="407.148438" y="644" xlink:href="#t"/>
  <use x="427.191406" y="644" xlink:href="#e"/>
  <use x="70" y="672" xlink:href="#s"/>
  <use x="82.183594" y="672" xlink:href="#c"/>
  <use x="95.992188" y="672" xlink:href="#d"/>
  <use x="115.226562" y="672" xlink:href="#r"/>
  <use x="154.152344" y="672" xlink:href="#b"/>
  <use x="167.535156" y="672" xlink:href="#q"/>
  <use x="187.46875" y="672" xlink:href="#a"/>
  <use x="216.207031" y="672" xlink:href="#p"/>
  <use x="239.640625" y="672" xlink:href="#d"/>
  <use x="258.878906" y="672" xlink:href="#o"/>
  <use x="278.8125" y="672" xlink:href="#e"/>
  <use x="308.492188" y="672" xlink:href="#n"/>
  <use x="329.015625" y="672" xlink:href="#c"/>
  <use x="342.820312" y="672" xlink:href="#d"/>
  <use x="362.058594" y="672" xlink:href="#m"/>
  <use x="371.65625" y="672" xlink:href="#a"/>
  <use x="390.648438" y="672" xlink:href="#f"/>
  <use x="407.242188" y="672" xlink:href="#b"/>
 </g>
</svg>
