<?xml version="1.0" encoding="UTF-8"?>
<svg fill="white" width="700pt" height="700pt" version="1.1" viewBox="0 0 700 700" xmlns="http://www.w3.org/2000/svg" xmlns:xlink="http://www.w3.org/1999/xlink">

 <g>
  <path d="m511.28 386.96-1.1211-3.3594c-30.238-57.68-90.719-96.883-160.16-96.883s-129.92 39.199-160.16 96.32l-1.1211 3.3594c-0.55859 1.1211-0.55859 2.8008-0.55859 4.4805v14c0 8.3984 7.2812 15.68 15.68 15.68h292.88c8.3984 0 15.68-7.2812 15.68-15.68v-14c0-1.1172-0.55859-2.8008-1.1172-3.918z"/>
  <path d="m162.4 370.72 0.55859-1.6797c17.359-32.48 42-58.801 71.121-77.84-15.68-7.2812-33.602-11.199-52.078-11.199-47.602 0-89.602 27.441-110.32 67.199l-1.1211 2.2383c-0.55859 1.1211-0.55859 1.6836-0.55859 2.8008v9.5195c0 6.1602 5.0391 10.641 10.641 10.641h80.641z"/>
  <path d="m234.08 193.76c0 28.762-23.316 52.078-52.078 52.078s-52.078-23.316-52.078-52.078c0-28.766 23.316-52.082 52.078-52.082s52.078 23.316 52.078 52.082"/>
  <path d="m537.6 370.72-0.5625-1.1172c-17.359-32.48-42-58.801-71.121-77.84 15.68-7.2812 33.602-11.199 52.078-11.199 48.16 0 89.602 26.879 110.88 66.641l1.1211 2.2383c0.55859 1.1211 0.55859 2.2383 0.55859 2.8008v9.5195c0 6.1602-5.0391 10.641-10.641 10.641l-81.195-0.003906z"/>
  <path d="m570.08 193.76c0 28.762-23.316 52.078-52.078 52.078s-52.078-23.316-52.078-52.078c0-28.766 23.316-52.082 52.078-52.082s52.078 23.316 52.078 52.082"/>
  <path d="m430.08 182c0 44.535-36.102 80.641-80.637 80.641-44.539 0-80.641-36.105-80.641-80.641s36.102-80.641 80.641-80.641c44.535 0 80.637 36.105 80.637 80.641"/>
  <use x="70" y="644" xlink:href="#s"/>
  <use x="90.550781" y="644" xlink:href="#d"/>
  <use x="104.359375" y="644" xlink:href="#a"/>
  <use x="123.347656" y="644" xlink:href="#e"/>
  <use x="142.242188" y="644" xlink:href="#c"/>
  <use x="155.628906" y="644" xlink:href="#a"/>
  <use x="174.617188" y="644" xlink:href="#l"/>
  <use x="204.410156" y="644" xlink:href="#k"/>
  <use x="224.453125" y="644" xlink:href="#j"/>
  <use x="252.453125" y="644" xlink:href="#i"/>
  <use x="274.011719" y="644" xlink:href="#b"/>
  <use x="293.25" y="644" xlink:href="#h"/>
  <use x="322.421875" y="644" xlink:href="#e"/>
  <use x="341.320312" y="644" xlink:href="#g"/>
  <use x="361.25" y="644" xlink:href="#f"/>
  <use x="70" y="672" xlink:href="#r"/>
  <use x="82.183594" y="672" xlink:href="#d"/>
  <use x="95.992188" y="672" xlink:href="#b"/>
  <use x="115.226562" y="672" xlink:href="#h"/>
  <use x="154.152344" y="672" xlink:href="#c"/>
  <use x="167.535156" y="672" xlink:href="#q"/>
  <use x="187.46875" y="672" xlink:href="#a"/>
  <use x="216.207031" y="672" xlink:href="#p"/>
  <use x="239.640625" y="672" xlink:href="#b"/>
  <use x="258.878906" y="672" xlink:href="#o"/>
  <use x="278.8125" y="672" xlink:href="#g"/>
  <use x="308.492188" y="672" xlink:href="#f"/>
  <use x="329.015625" y="672" xlink:href="#d"/>
  <use x="342.820312" y="672" xlink:href="#b"/>
  <use x="362.058594" y="672" xlink:href="#n"/>
  <use x="371.65625" y="672" xlink:href="#a"/>
  <use x="390.648438" y="672" xlink:href="#m"/>
  <use x="407.242188" y="672" xlink:href="#c"/>
 </g>
</svg>
