<svg xmlns="http://www.w3.org/2000/svg" viewBox="0 0 637.31 559.59"><defs><style>.cls-1,.cls-2{fill:#fff;}.cls-2{fill-rule:evenodd;}</style></defs><g id="Layer_2" data-name="Layer 2"><g id="Layer_1-2" data-name="Layer 1"><path class="cls-1" d="M488.36,222.08l43.36-1.89c7.55-1.88,15.09-9.42,15.09-18.85V148.55H79.2c-9.43,0-17-7.55-17-15.09a16.9,16.9,0,0,1,17-17h86.73l60.34-28.28H52.8A20.92,20.92,0,0,0,32.06,109V508.68A20.92,20.92,0,0,0,52.8,529.42H526.07a20.92,20.92,0,0,0,20.74-20.74V416.29a20.92,20.92,0,0,0-20.74-20.74H462c-28.28,0-50.91-22.63-50.91-52.79V273c0-47.14,39.6-50.91,77.31-50.91ZM239.47,116.49H446.88L407.28,37.3,239.47,116.49Zm243.23,0h64.1V109A20.92,20.92,0,0,0,526.06,88.2H467.61l15.09,28.29ZM452.53,56.15h73.53C554.34,56.15,577,80.67,577,109v92.39c0,7.54,0,13.2-3.77,20.74h11.32c28.28,0,52.79,22.62,52.79,50.91v69.77c0,28.28-24.51,52.79-52.79,52.79H573.2c3.77,5.65,3.77,13.2,3.77,20.74v92.39a50.7,50.7,0,0,1-50.91,50.91H52.79C24.51,559.59,0,537,0,508.68V109C0,80.67,24.51,56.16,52.79,56.16H292.25L409.15,1.48c7.55-3.77,17,0,20.74,7.54l22.63,47.14Zm132,198H462c-11.31,0-18.86,7.55-18.86,18.86v69.76c0,11.32,7.55,20.75,18.86,20.75H584.52a20.93,20.93,0,0,0,20.74-20.75V273c0-11.31-9.43-18.86-20.74-18.86Z"/><path class="cls-2" d="M524.18,308.82a24.52,24.52,0,1,1-24.52-24.51,24.52,24.52,0,0,1,24.52,24.51"/></g></g></svg>