<?xml version="1.0" standalone="no"?>
<!DOCTYPE svg PUBLIC "-//W3C//DTD SVG 20010904//EN"
 "http://www.w3.org/TR/2001/REC-SVG-20010904/DTD/svg10.dtd">
<svg version="1.0" xmlns="http://www.w3.org/2000/svg"
 width="194.000000pt" height="194.000000pt" viewBox="0 0 194.000000 194.000000"
 preserveAspectRatio="xMidYMid meet">
<metadata>
Created by potrace 1.14, written by Peter Selinger 2001-2017
</metadata>
<g transform="translate(0.000000,194.000000) scale(0.100000,-0.100000)"
fill="#000000" stroke="none">
<path d="M1188 1781 c-10 -14 -13 -65 -12 -205 l2 -186 -47 -1 c-25 0 -240 0
-478 -1 l-431 0 -52 -24 c-88 -41 -151 -122 -166 -213 l-6 -41 968 0 968 0
-34 36 c-19 19 -174 175 -343 345 -319 321 -338 335 -369 290z"/>
<path d="M25 830 c-10 -3 104 -123 329 -349 311 -311 346 -343 369 -337 14 3
29 16 33 29 4 12 8 103 8 202 l1 180 475 1 476 1 54 26 c67 31 89 51 123 104
28 44 54 129 43 140 -8 8 -1890 11 -1911 3z"/>
</g>
</svg>
